<svg 
xmlns="http://www.w3.org/2000/svg"
viewBox="0 0 600 400">


<!-- CUERPO -->

<path
d="
M170 70
C90 90 50 190 90 300
C110 350 170 350 210 300

C260 270 340 270 390 300

C430 350 490 350 510 300

C550 190 510 90 430 70

C350 40 250 40 170 70Z
"
fill="#f1f5f9"
stroke="#94a3b8"
stroke-width="5"
/>





<!-- TOUCHPAD -->

<rect
x="245"
y="85"
width="110"
height="55"
rx="20"
fill="#ffffff"
stroke="#cbd5e1"
stroke-width="4"
/>





<!-- D PAD -->

<g
id="dpad"
fill="#cbd5e1">


<rect
x="120"
y="170"
width="40"
height="110"
rx="8"
/>


<rect
x="85"
y="205"
width="110"
height="40"
rx="8"
/>


</g>







<!-- BOTONES PLAYSTATION -->


<circle
id="button-square"
cx="390"
cy="210"
r="22"
fill="#e2e8f0"
stroke="#94a3b8"
stroke-width="3"
/>


<text
x="390"
y="218"
text-anchor="middle"
font-size="28"
fill="#64748b">
□
</text>





<circle
id="button-triangle"
cx="430"
cy="170"
r="22"
fill="#e2e8f0"
stroke="#94a3b8"
stroke-width="3"
/>


<text
x="430"
y="178"
text-anchor="middle"
font-size="28"
fill="#64748b">
△
</text>






<circle
id="button-circle"
cx="470"
cy="210"
r="22"
fill="#e2e8f0"
stroke="#94a3b8"
stroke-width="3"
/>


<text
x="470"
y="218"
text-anchor="middle"
font-size="28"
fill="#64748b">
○
</text>







<circle
id="button-cross"
cx="430"
cy="250"
r="22"
fill="#e2e8f0"
stroke="#94a3b8"
stroke-width="3"
/>


<text
x="430"
y="258"
text-anchor="middle"
font-size="28"
fill="#647s8b">
✕
</text>







<!-- STICK IZQUIERDO -->


<circle
cx="220"
cy="250"
r="50"
fill="#ffffff"
stroke="#cbd5e1"
stroke-width="4"
/>


<circle
id="stick-left"
cx="220"
cy="250"
r="25"
fill="#94a3b8"
/>






<!-- STICK DERECHO -->


<circle
cx="380"
cy="250"
r="50"
fill="#ffffff"
stroke="#cbd5e1"
stroke-width="4"
/>


<circle
id="stick-right"
cx="380"
cy="250"
r="25"
fill="#94a3b8"
/>







<!-- L1 R1 -->


<rect
id="button-l1"
x="130"
y="55"
width="90"
height="35"
rx="15"
fill="#cbd5e1"
/>



<rect
id="button-r1"
x="380"
y="55"
width="90"
height="35"
rx="15"
fill="#cbd5e1"
/>






<!-- L2 R2 -->


<rect
id="trigger-l2"
x="130"
y="25"
width="90"
height="20"
rx="10"
fill="#94a3b8"
/>



<rect
id="trigger-r2"
x="380"
y="25"
width="90"
height="20"
rx="10"
fill="#94a3b8"
/>



</svg>
